<?xml version="1.0" standalone="no"?>
<!DOCTYPE svg PUBLIC "-//W3C//DTD SVG 20010904//EN"
 "http://www.w3.org/TR/2001/REC-SVG-20010904/DTD/svg10.dtd">
<svg version="1.0" xmlns="http://www.w3.org/2000/svg"
 width="662.000000pt" height="910.000000pt" viewBox="0 0 662.000000 910.000000"
 preserveAspectRatio="xMidYMid meet">

<g transform="translate(0.000000,910.000000) scale(0.100000,-0.100000)"
fill="#000000" stroke="none">
<path d="M2616 7982 c-7 -31 -197 -356 -276 -472 -86 -127 -240 -236 -240
-171 0 26 -23 31 -177 38 -119 5 -133 4 -133 -11 0 -37 -65 0 -160 90 -119
114 -185 158 -138 92 25 -36 34 -46 124 -128 102 -93 142 -121 209 -144 62
-22 249 -34 259 -17 4 6 14 11 23 11 24 0 114 63 159 112 22 24 58 70 81 103
56 83 163 263 163 275 0 6 5 10 10 10 6 0 10 4 10 10 0 5 18 37 40 71 40 61
65 129 57 152 -2 7 -7 -3 -11 -21z"/>
<path d="M4831 6175 c-3 -42 -51 -123 -123 -205 -74 -85 -144 -162 -713 -786
-166 -181 -347 -383 -404 -449 -112 -130 -301 -362 -301 -370 0 -20 31 9 102
98 45 56 85 104 88 107 3 3 25 30 50 60 25 30 47 57 50 60 3 3 34 39 70 80 35
41 67 77 70 80 3 3 27 30 54 60 27 30 72 80 100 110 28 30 94 102 146 160 52
58 102 112 110 120 8 8 53 58 100 110 47 52 92 102 100 110 8 8 37 40 64 70
27 30 72 80 100 110 28 30 89 98 136 150 47 52 93 104 103 115 61 66 114 174
104 212 -4 16 -5 15 -6 -2z"/>
<path d="M2382 5770 c0 -14 2 -19 5 -12 2 6 2 18 0 25 -3 6 -5 1 -5 -13z"/>
<path d="M2372 5720 c0 -14 2 -19 5 -12 2 6 2 18 0 25 -3 6 -5 1 -5 -13z"/>
<path d="M2362 5670 c0 -14 2 -19 5 -12 2 6 2 18 0 25 -3 6 -5 1 -5 -13z"/>
<path d="M2352 5620 c0 -14 2 -19 5 -12 2 6 2 18 0 25 -3 6 -5 1 -5 -13z"/>
<path d="M2336 5549 c-4 -23 -5 -44 -2 -46 2 -2 7 14 11 37 4 23 5 43 2 46 -2
3 -7 -14 -11 -37z"/>
<path d="M2316 5449 c-4 -23 -5 -44 -2 -46 2 -2 7 14 11 37 4 23 5 43 2 46 -2
3 -7 -14 -11 -37z"/>
<path d="M2301 5370 c-1 -14 -4 -36 -6 -50 l-6 -25 11 25 c6 13 9 36 7 50 l-4
25 -2 -25z"/>
<path d="M2276 5244 c-3 -26 -4 -49 -2 -52 3 -2 8 17 11 43 4 25 5 48 3 51 -3
2 -8 -17 -12 -42z"/>
<path d="M2256 5139 c-4 -23 -5 -44 -2 -46 2 -2 7 14 11 37 4 23 5 43 2 46 -2
3 -7 -14 -11 -37z"/>
<path d="M2231 5019 c-7 -34 -10 -63 -8 -65 2 -3 10 23 17 56 7 33 11 63 8 65
-2 2 -10 -23 -17 -56z"/>
<path d="M2191 4843 c-35 -148 -107 -358 -145 -427 -92 -165 -258 -324 -356
-342 -29 -6 -33 -4 -22 7 6 7 12 17 12 22 0 4 -66 5 -147 1 -171 -7 -257 5
-425 62 -118 39 -160 42 -188 14 -23 -23 -44 -17 -90 26 -16 15 -30 20 -39 15
-10 -6 -4 -17 23 -45 48 -47 71 -58 233 -111 230 -73 309 -88 427 -81 97 7
124 12 191 41 17 7 47 20 68 29 21 8 44 21 51 28 8 7 33 29 57 48 56 46 71 62
134 145 65 86 83 118 122 220 51 132 129 412 121 436 -2 6 -14 -33 -27 -88z"/>
<path d="M2712 3528 c-191 -302 -370 -632 -475 -879 -78 -183 -179 -494 -231
-709 -34 -142 -46 -202 -45 -218 0 -9 13 37 29 103 15 66 37 156 50 200 12 44
25 94 30 110 15 58 108 331 140 410 109 273 268 574 502 949 108 173 126 206
114 206 -3 0 -54 -78 -114 -172z"/>
<path d="M3522 1980 c0 -14 2 -19 5 -12 2 6 2 18 0 25 -3 6 -5 1 -5 -13z"/>
<path d="M3512 1890 c0 -14 2 -19 5 -12 2 6 2 18 0 25 -3 6 -5 1 -5 -13z"/>
<path d="M3502 1815 c0 -16 2 -22 5 -12 2 9 2 23 0 30 -3 6 -5 -1 -5 -18z"/>
<path d="M3491 1754 c0 -11 3 -14 6 -6 3 7 2 16 -1 19 -3 4 -6 -2 -5 -13z"/>
<path d="M3471 1655 c-79 -399 -297 -797 -593 -1081 -111 -107 -257 -204 -305
-204 -14 0 -14 2 2 20 18 19 17 20 -6 20 -13 0 -43 -5 -66 -10 -93 -22 -304
-29 -405 -15 -54 7 -101 16 -106 19 -5 3 -47 13 -93 22 -60 12 -84 14 -87 6
-7 -23 -87 31 -168 112 -69 70 -150 173 -216 274 -34 51 -18 8 28 -77 78 -144
175 -254 302 -339 64 -44 195 -105 248 -116 16 -3 43 -9 59 -12 17 -4 88 -9
158 -11 109 -4 141 -1 215 18 163 42 292 120 446 268 222 215 394 478 501 766
41 111 108 366 103 393 -2 9 -10 -14 -17 -53z"/>
<path d="M1951 1684 c0 -11 3 -14 6 -6 3 7 2 16 -1 19 -3 4 -6 -2 -5 -13z"/>
<path d="M1942 1615 c0 -16 2 -22 5 -12 2 9 2 23 0 30 -3 6 -5 -1 -5 -18z"/>
<path d="M1932 1560 c0 -14 2 -19 5 -12 2 6 2 18 0 25 -3 6 -5 1 -5 -13z"/>
<path d="M1922 1480 c0 -14 2 -19 5 -12 2 6 2 18 0 25 -3 6 -5 1 -5 -13z"/>
</g>
</svg>
